# xmcd
#
# Track frame offsets:
# 150
# 17527
# 36956
# 56355
# 77201
# 96971
# 108187
# 130535
# 150700
# 168899
# 191080
#
# Disc length: 2914 seconds
#
# Revision: 0
# Processed by: cddbd v1.5.2PL0 Copyright (c) Steve Scherf et al.
# Submitted via: Audion 3.0.2 (http://www.panic.com/audion/)
#
DISCID=7e0b600b
DTITLE=Stephanie Hill - Promise
DYEAR=1900
DGENRE=
TTITLE0=Perfect Love
TTITLE1=I Believe
TTITLE2=Heal Me
TTITLE3=How Great Thou Art
TTITLE4=The Perfect Prayer
TTITLE5=In His Embrace
TTITLE6=Sometimes He Lets It Rain
TTITLE7=In Gethsemane
TTITLE8=After All I Can Do
TTITLE9=I Stand All Amazed
TTITLE10=Arise and Shine Forth
EXTD=
EXTT0=
EXTT1=
EXTT2=
EXTT3=
EXTT4=
EXTT5=
EXTT6=
EXTT7=
EXTT8=
EXTT9=
EXTT10=
PLAYORDER=
